# xmcd
#
# Track frame offsets:
#	150
#	9837
#	25999
#	40708
#	50891
#	63708
#	81826
#	92039
#	103837
#	115306
#	134476
#	145629
#	162409
#	173783
#	194085
#	207649
#	222665
#	235005
#	245402
#	262719
#
# Disc length: 3609 seconds
#
# Revision: 1
# Processed by: cddbd v1.5.2PL0 Copyright (c) Steve Scherf et al.
# Submitted via: EZCDAudioConverter 1.5.5.1
#
DISCID=270e1714
DTITLE=Pavel Bobek - Kdyz na ta leta vzpominam
DYEAR=2010
DGENRE=Pop
TTITLE0=Odchazim zvu vas k nam
TTITLE1=Pojd dal a zpivej
TTITLE2=Dveste cest jak sbohem davat
TTITLE3=King Of The Road
TTITLE4=It´s Too Soon To Know
TTITLE5=Lasko me ubyva sil
TTITLE6=Tatovo boogie
TTITLE7=Az se priste budem brat
TTITLE8=Mit cas pro trochu sneni
TTITLE9=Drz se zpatky chlapce muj
TTITLE10=Kdyz na ta leta vzpominam
TTITLE11=Dej mi sanci posledni
TTITLE12=Zavidim ze umis hrat
TTITLE13=Co muzu vic nez doufat
TTITLE14=A tak to pujde dal
TTITLE15=Ja pri tom byl
TTITLE16=Laska ze skolnich let
TTITLE17=Kdyz padla rosa do jetele
TTITLE18=Sadie
TTITLE19=Oh, Boy
EXTD=
EXTT0=
EXTT1=
EXTT2=
EXTT3=
EXTT4=
EXTT5=
EXTT6=
EXTT7=
EXTT8=
EXTT9=
EXTT10=
EXTT11=
EXTT12=
EXTT13=
EXTT14=
EXTT15=
EXTT16=
EXTT17=
EXTT18=
EXTT19=
PLAYORDER=
